<?xml version="1.0" encoding="utf-8"?>
<!-- Generator: Adobe Illustrator 22.1.0, SVG Export Plug-In . SVG Version: 6.00 Build 0)  -->
<svg version="1.1" id="Capa_1" xmlns="http://www.w3.org/2000/svg" xmlns:xlink="http://www.w3.org/1999/xlink" x="0px" y="0px"
	 viewBox="0 0 237 148" style="enable-background:new 0 0 237 148;" xml:space="preserve">
<style type="text/css">
	.st0{opacity:0.5;}
	.st1{fill:#FFFFFF;}
	.st2{fill:#CAF0FF;}
	.st3{fill:#000201;}
</style>
<g class="st0">
	<g>
		<path class="st1" d="M234,103.4c0,23.5-18.9,42.5-42.4,42.6c0,0,0,0,0,0H61.1C29,145.9,3,119.9,3,87.8s26-58.1,58.1-58.1l0,0
			c7.2,0,14.3,1.3,21,3.9C97.1,5.3,132.3-5.5,160.6,9.5c19,10.1,30.9,29.9,30.9,51.4C214.9,60.9,233.9,79.9,234,103.4L234,103.4z"/>
	</g>
	<g>
		<path class="st2" d="M234,103.4c0.1,23.5-18.9,42.5-42.4,42.6c0,0,0,0,0,0H61.1C29,146,2.9,120,2.9,87.8c0,0,0,0,0,0l0,0
			c0-6.7,1.2-13.3,3.4-19.6c8.2,23.2,30.2,38.7,54.8,38.7h130.3c15.9,0,30.4-8.8,37.7-22.9C232.4,90,234,96.6,234,103.4z"/>
	</g>
	<g>
		<path class="st3" d="M17.6,51.3c-1.2,0-2.3-1-2.3-2.3c0-0.6,0.2-1.1,0.6-1.5c2.6-3,5.6-5.6,8.8-8c0.9-0.8,2.4-0.7,3.2,0.2
			c0.8,0.9,0.7,2.4-0.2,3.2c-0.1,0.1-0.1,0.1-0.2,0.2l0,0c-2.9,2.2-5.7,4.7-8.1,7.5C18.9,51.1,18.3,51.4,17.6,51.3z"/>
	</g>
	<g>
		<path class="st3" d="M191.4,148.2H61.1c-33.4-0.1-60.4-27.2-60.4-60.6c0-11.2,3.1-22.1,9-31.6c0.7-1,2.1-1.3,3.2-0.5
			c0.9,0.7,1.2,1.9,0.7,2.9l0,0c-16.2,26.2-8.2,60.6,18.1,76.9c8.8,5.5,19,8.4,29.4,8.4h130.3c22.2,0.7,40.8-16.7,41.5-38.9
			c0.7-22.2-16.7-40.8-38.9-41.5c-0.9,0-1.7,0-2.6,0l0,0c-1.2,0-2.3-1-2.3-2.3v0c0-11.5-3.5-22.8-10.1-32.2c-0.7-1-0.5-2.4,0.5-3.1
			c0,0,0,0,0.1,0c1-0.7,2.4-0.5,3.2,0.5l0,0c6.7,9.6,10.4,20.9,10.8,32.6c24.7,1.1,43.9,21.9,42.8,46.7
			C235.4,129.5,215.5,148.4,191.4,148.2L191.4,148.2z"/>
	</g>
	<g>
		<path class="st3" d="M36.8,37.2c-1.2-0.1-2.1-1.2-2-2.5c0.1-0.7,0.5-1.3,1.1-1.7c14.2-6.5,30.3-7.3,45.1-2.1
			c15.2-26.5,47.8-37.5,76-25.6c1.1,0.5,1.7,1.8,1.2,3c-0.4,1.1-1.7,1.7-2.9,1.3c0,0-0.1,0-0.1,0l0,0C128.4-1.9,97.5,9.1,83.9,34.6
			c-0.6,1-1.8,1.5-2.8,1c-6.4-2.5-13.2-3.8-20-3.8c-8,0-16,1.8-23.3,5.2C37.4,37.2,37.1,37.3,36.8,37.2z"/>
	</g>
	<g>
		<path class="st3" d="M93.5,48.3c-0.8,0-1.6-0.4-2-1.2c-2.6-4.9-6.6-9-11.5-11.7c-1.1-0.6-1.5-2-0.9-3.1c0.6-1.1,2-1.5,3.1-0.9l0,0
			c5.7,3.1,10.3,7.9,13.3,13.6c0.6,1.1,0.2,2.5-0.9,3.1l0,0C94.2,48.2,93.9,48.3,93.5,48.3z"/>
	</g>
	<g>
		<path class="st3" d="M191.4,147.1H61.1c-32.8,0-59.4-26.6-59.4-59.4c0-0.6,0.5-1.2,1.1-1.2c0,0,0,0,0,0c0.7,0,1.2,0.5,1.3,1.2l0,0
			c0,31.5,25.5,57,57,57h130.3c22.8,0.7,41.9-17.2,42.6-40s-17.2-41.9-40-42.6c-0.9,0-1.8,0-2.6,0l0,0c-0.6,0-1.2-0.5-1.2-1.1
			c0,0,0,0,0,0c0-0.7,0.5-1.2,1.2-1.3l0,0c24.1-0.7,44.3,18.2,45.1,42.4c0.7,24.1-18.2,44.3-42.4,45.1
			C193.2,147.2,192.3,147.2,191.4,147.1z"/>
	</g>
	<g>
		<path class="st3" d="M175.8,21.4c-0.6,0-1.1-0.2-1.6-0.6c-3-2.9-6.2-5.4-9.8-7.6c-1.1-0.7-1.4-2.1-0.7-3.1
			c0.7-1.1,2.1-1.4,3.1-0.7l0,0c3.8,2.3,7.3,5.1,10.5,8.2c0.9,0.9,0.9,2.3,0,3.2l0,0C177,21.1,176.4,21.4,175.8,21.4z"/>
	</g>
</g>
</svg>
