<?xml version="1.0" encoding="utf-8"?>
<!-- Generator: Adobe Illustrator 22.1.0, SVG Export Plug-In . SVG Version: 6.00 Build 0)  -->
<svg version="1.1" id="Capa_1" xmlns="http://www.w3.org/2000/svg" xmlns:xlink="http://www.w3.org/1999/xlink" x="0px" y="0px"
	 viewBox="0 0 237 148" style="enable-background:new 0 0 237 148;" xml:space="preserve">
<style type="text/css">
	.st0{opacity:0.5;}
	.st1{fill:#FFFFFF;}
	.st2{fill:#CAF0FF;}
	.st3{fill:#000201;}
</style>
<g class="st0">
	<g>
		<path class="st1" d="M3.9,103.1c-0.1,23.5,18.9,42.5,42.4,42.6c0,0,0.1,0,0.1,0h130.5c32.1,0,58.1-26,58.1-58.1
			c0-32.1-26-58.1-58.1-58.1c0,0,0,0,0,0l0,0c-7.2,0-14.3,1.3-21,3.9C141,5,105.8-5.9,77.4,9.1c-19.1,10.1-31.1,30-31,51.6
			C23,60.7,4,79.7,3.9,103.1L3.9,103.1z"/>
	</g>
	<g>
		<path class="st2" d="M3.9,103.2c0,23.5,19,42.5,42.5,42.6c0,0,0,0,0,0h130.5c32.1-0.1,58.1-26.1,58.1-58.2l0,0
			c0-6.7-1.2-13.3-3.5-19.6c-8.2,23.2-30.2,38.7-54.8,38.7H46.4c-15.9,0-30.4-8.9-37.7-22.9C5.5,89.7,3.8,96.4,3.9,103.2z"/>
	</g>
	<g>
		<path class="st3" d="M220.2,51.1c1.3,0,2.3-1.1,2.3-2.3c0-0.5-0.2-1.1-0.6-1.5c-2.7-3-5.6-5.7-8.8-8.1c-1-0.8-2.4-0.5-3.2,0.5
			c-0.8,1-0.5,2.4,0.5,3.2c2.9,2.2,5.6,4.7,8.1,7.4C219,50.8,219.6,51.1,220.2,51.1z"/>
	</g>
	<g>
		<path class="st3" d="M46.4,148.2h130.4c33.4-0.1,60.4-27.2,60.4-60.6c0-11.2-3.1-22.1-9-31.6c-0.7-1.1-2.1-1.4-3.1-0.7
			c-1.1,0.7-1.4,2.1-0.7,3.1c16.3,26.3,8.2,60.7-18.1,77c-8.8,5.5-19,8.4-29.4,8.4H46.4c-22.2,0.7-40.8-16.7-41.5-38.9
			C4.1,82.7,21.6,64.1,43.8,63.3c0.9,0,1.7,0,2.6,0l0,0c1.2,0,2.3-1,2.3-2.3l0,0C48.6,49.4,52.2,38,59,28.6c0.7-1,0.4-2.5-0.6-3.2
			c-1-0.7-2.4-0.4-3.1,0.6l0,0c-6.7,9.6-10.5,20.9-10.9,32.6C19.6,59.1,0,79.6,0.5,104.4S21.6,148.7,46.4,148.2z"/>
	</g>
	<g>
		<path class="st3" d="M201.1,37.1c1.3,0,2.3-1,2.3-2.3c0-0.9-0.5-1.7-1.3-2.1c-14.2-6.5-30.3-7.3-45.1-2.1
			C141.8,4.1,109.2-6.8,81,5c-1.1,0.4-1.7,1.7-1.3,2.9c0,0,0,0.1,0,0.1c0.5,1.1,1.8,1.7,3,1.2l0,0c26.7-11.3,57.6-0.4,71.2,25.1
			c0.6,1,1.8,1.5,2.8,1c6.4-2.5,13.2-3.8,20.1-3.8c8.1,0,16,1.7,23.4,5.1C200.6,36.9,200.8,37,201.1,37.1z"/>
	</g>
	<g>
		<path class="st3" d="M144.4,48c0.8,0,1.6-0.5,2-1.2c2.6-5,6.6-9.1,11.5-11.8c1.1-0.5,1.7-1.8,1.2-3c-0.5-1.1-1.8-1.7-3-1.2
			c-0.1,0.1-0.3,0.1-0.4,0.2l0,0c-5.7,3.1-10.3,7.8-13.3,13.5c-0.6,1.1-0.2,2.5,0.9,3.1l0,0C143.6,47.9,144,48,144.4,48z"/>
	</g>
	<g>
		<path class="st3" d="M46.4,147h130.4c32.8,0,59.4-26.6,59.4-59.4c0-0.7-0.5-1.2-1.2-1.2c-0.7,0-1.2,0.5-1.2,1.2l0,0
			c0,31.5-25.5,56.9-57,57H46.4c-22.8,0.7-41.9-17.2-42.6-40S21,62.7,43.8,62c0.9,0,1.8,0,2.6,0l0,0c0.7,0,1.2-0.5,1.3-1.2
			c0-0.7-0.5-1.2-1.2-1.2l0,0l0,0C22.3,60.3,3.3,80.4,4.1,104.6C4.8,127.7,23.3,146.3,46.4,147L46.4,147z"/>
	</g>
	<g>
		<path class="st3" d="M62.1,21.2c0.6,0,1.2-0.2,1.6-0.6c3-2.9,6.2-5.4,9.8-7.5c1.1-0.7,1.4-2.1,0.7-3.1c-0.6-1.1-2-1.4-3.1-0.8
			c0,0,0,0,0,0l0,0c-3.8,2.3-7.3,5.1-10.5,8.2c-0.9,0.9-0.9,2.3,0,3.2l0,0C60.9,21,61.5,21.2,62.1,21.2z"/>
	</g>
</g>
</svg>
