<?xml version="1.0" encoding="utf-8"?>
<!-- Generator: Adobe Illustrator 22.1.0, SVG Export Plug-In . SVG Version: 6.00 Build 0)  -->
<svg version="1.1" id="Capa_1" xmlns="http://www.w3.org/2000/svg" xmlns:xlink="http://www.w3.org/1999/xlink" x="0px" y="0px"
	 viewBox="0 0 592 440" style="enable-background:new 0 0 592 440;" xml:space="preserve">
<style type="text/css">
	.st0{fill:#14B8C4;}
	.st1{fill:#00ABAF;}
	.st2{fill:#FFFFFF;}
	.st3{fill:#000201;}
	.st4{fill:#34E0F7;}
	.st5{fill:#B3B3B3;}
	.st6{fill:#8C6239;}
	.st7{fill:#754C24;}
	.st8{fill:#999999;}
	.st9{fill:#1F1F1F;}
	.st10{fill:#333333;}
	.st11{fill:#737373;}
	.st12{fill:#010101;}
	.st13{fill:#151515;}
	.st14{fill:#878787;}
	.st15{fill:#111111;}
	.st16{fill:#EFEFEF;}
	.st17{fill:#181818;}
	.st18{fill:#BDCCD4;}
	.st19{fill:#F6F6F6;}
	.st20{fill:#F1F1F1;}
	.st21{fill:#0D0D0D;}
	.st22{fill:#0F0F0F;}
	.st23{fill:#121212;}
	.st24{fill:none;}
	.st25{fill:#FDFDFD;}
	.st26{fill:#F4AD5E;}
	.st27{fill:#FFC68D;}
	.st28{fill:#E28C37;}
	.st29{fill:#FFDCC0;}
</style>
<g>
	<path class="st0" d="M315.4,2.6C202.6,2.6,111.1,94,111.1,206.9s91.5,204.3,204.3,204.3s204.3-91.5,204.3-204.3l0,0l0,0
		C519.5,94.1,428.1,2.8,315.4,2.6z M315.4,21.2c47.4,0,93.1,18.3,127.4,51.1c-6.2-3.2-13.1-4.9-20.1-5c-12.1,0-32.1,5.2-32.1,39.9
		c2.5,14.7,8.5,28.5,17.6,40.3c12.2,19.9,26.2,42.3,22.6,60c-8,23.6-19.1,56.1-29.9,86.7l-52-161.6h3.5c5.1,0.1,9.2-4,9.3-9
		c0,0,0,0,0,0l0,0c0-5.1-4.1-9.3-9.2-9.3c0,0-0.1,0-0.1,0H269c-5.1,0.1-9.2,4.2-9.3,9.3c0,5.1,4.1,9.3,9.3,9.3h7l29.3,83.8
		c-7.5,22.4-17.1,50.7-26.6,77.6l-52.2-161.6h5.4c5.1,0,9.2-4,9.3-9.1c0,0,0,0,0,0l0,0c0-5.1-4.1-9.3-9.2-9.3c0,0,0,0,0,0h-77.1
		C187.9,56.8,249.1,21.4,315.4,21.2z M129.7,206.9c0-25.6,5.3-50.9,15.6-74.3h8.4l85.4,243.6C172.5,346.1,129.7,279.9,129.7,206.9z
		 M315.4,392.5c-16.8,0-33.4-2.3-49.6-6.9c8.4-22.8,31.8-89.1,49.6-140.7L365,385.6C348.8,390.2,332.2,392.5,315.4,392.5z
		 M391.7,376.1c12.6-34.5,39.8-111.6,55.5-158.8c0.4-0.6,0.6-1.3,0.8-2.1c0.3-0.9,0.6-1.8,0.8-2.8c2.4-6.9,4.2-13,5.9-18
		c9.8-31.2,19.1-71.7,11.5-95.4c59.8,82.9,41,198.5-41.8,258.2C414.1,364.7,403.2,371,391.7,376.1z"/>
</g>
<g>
	<path class="st1" d="M520.5,200.4v4.7c1.6,112.8-88.5,205.6-201.3,207.2S113.6,323.7,112,210.9c0-2,0-3.9,0-5.9v-4.7
		c2.8,112.8,96.5,202,209.3,199.2C430.2,396.9,517.8,309.3,520.5,200.4z"/>
</g>
<g>
	<path class="st2" d="M215.8,280.7c-1,0-1.9-0.6-2.2-1.6l-24.5-70.6c-0.4-1.2,0.2-2.5,1.4-3c1.2-0.4,2.5,0.2,3,1.4l24.5,70.6
		c0.4,1.2-0.2,2.5-1.4,3C216.3,280.6,216.1,280.7,215.8,280.7z"/>
</g>
<g>
	<path class="st2" d="M187,197.5c-1,0-1.9-0.6-2.2-1.6l-16.4-47.3c-0.4-1.2,0.2-2.5,1.4-3c1.2-0.4,2.5,0.2,3,1.4l16.4,47.3
		c0.4,1.2-0.2,2.5-1.4,3C187.5,197.5,187.2,197.5,187,197.5z"/>
</g>
<g>
	<path class="st1" d="M389.5,372.8c-0.3,0-0.5,0-0.8-0.1c-1.2-0.4-1.8-1.8-1.4-3l24.1-66.7c0.4-1.2,1.8-1.8,3-1.4
		c1.2,0.4,1.8,1.8,1.4,3l-24.1,66.7C391.3,372.2,390.4,372.8,389.5,372.8z"/>
</g>
<g>
	<path class="st1" d="M267.2,371c-0.3,0-0.5,0-0.8-0.1c-1.2-0.4-1.8-1.8-1.4-3l24-66.7c0.4-1.2,1.8-1.8,3-1.4c1.2,0.4,1.8,1.8,1.4,3
		l-24,66.7C269,370.4,268.1,371,267.2,371z"/>
</g>
<g>
	<path class="st1" d="M372.8,223.4c-1,0-1.9-0.6-2.2-1.6l-21.2-67.7c-0.4-1.2,0.3-2.5,1.5-2.9c1.2-0.4,2.5,0.3,2.9,1.5l21.2,67.7
		c0.4,1.2-0.3,2.5-1.5,2.9C373.3,223.3,373,223.4,372.8,223.4z"/>
</g>
<g>
	<path class="st2" d="M220.4,121.5h-55.9c-2.3,0-4.2-1.9-4.2-4.2c0-2.3,1.9-4.2,4.2-4.2h55.9c2.3,0,4.2,1.9,4.2,4.2
		C224.6,119.7,222.7,121.5,220.4,121.5z"/>
</g>
<g>
	<path class="st2" d="M336.2,121.5h-55.9c-2.3,0-4.2-1.9-4.2-4.2c0-2.3,1.9-4.2,4.2-4.2h55.9c2.3,0,4.2,1.9,4.2,4.2
		C340.3,119.7,338.5,121.5,336.2,121.5z"/>
</g>
<g>
	<path class="st2" d="M303.3,207.5c-1.7,0-3.3-1.1-3.9-2.8l-20-57c-0.8-2.2,0.4-4.6,2.6-5.3c2.2-0.8,4.6,0.4,5.3,2.6l20,57
		c0.8,2.2-0.4,4.6-2.6,5.3C304.2,207.4,303.7,207.5,303.3,207.5z"/>
</g>
<g>
	<path class="st3" d="M315.4,413.4c-113.9,0-206.6-92.7-206.6-206.6c0-113.9,92.7-206.6,206.6-206.6h0
		C429.1,0.5,521.8,93.1,522,206.9C522,320.8,429.3,413.4,315.4,413.4z M315.4,4.9C204,4.9,113.5,95.5,113.5,206.9
		c0,111.4,90.6,201.9,201.9,201.9c111.4,0,201.9-90.6,201.9-201.9C517.1,95.7,426.5,5.1,315.4,4.9L315.4,4.9z M315.4,394.9
		c-16.9,0-33.8-2.3-50.2-7c-0.6-0.2-1.1-0.6-1.4-1.2c-0.3-0.6-0.3-1.2-0.1-1.9c8-21.8,30.9-86.6,49.6-140.7c0.3-0.9,1.2-1.6,2.2-1.6
		c0.9,0.1,1.9,0.6,2.2,1.6l18.4,52.4c0.4,1.2-0.2,2.5-1.4,3c-1.2,0.4-2.5-0.2-3-1.4L315.4,252c-17.6,50.9-38.2,109.2-46.5,132.1
		c30.5,8.2,62.6,8.2,93.1,0l-23.1-65.4c-0.4-1.2,0.2-2.5,1.4-3c1.2-0.4,2.5,0.2,3,1.4l23.9,67.8c0.2,0.6,0.2,1.3-0.1,1.8
		c-0.3,0.6-0.8,1-1.4,1.2C349.2,392.5,332.3,394.9,315.4,394.9z M391.7,378.5c-0.6,0-1.1-0.2-1.6-0.6c-0.7-0.6-0.9-1.6-0.6-2.5
		c12.6-34.6,39.8-111.8,55.5-158.7c0.1-0.2,0.1-0.3,0.2-0.4c0.2-0.4,0.4-0.8,0.5-1.3c0-0.1,0.1-0.3,0.1-0.4c0.3-0.8,0.5-1.6,0.6-2.4
		c1.4-4.1,2.6-7.7,3.6-11c0.9-2.7,1.6-5.2,2.4-7.4c9.4-29.8,19-70.4,11.5-94c-0.4-1.1,0.1-2.3,1.2-2.8c1-0.5,2.3-0.2,2.9,0.7
		c29.9,41.5,41.6,94,32.1,144.3c-0.2,1.3-1.5,2.1-2.7,1.8c-1.3-0.2-2.1-1.5-1.8-2.7c8.6-45.2-0.5-92.3-24.8-131
		c2.7,24.8-5.6,59-13.9,85.2c-0.8,2.3-1.6,4.7-2.4,7.4c-1.1,3.3-2.2,6.9-3.6,10.7c-0.1,0.7-0.4,1.6-0.7,2.6
		c-0.2,0.8-0.5,1.6-0.9,2.4c-14.9,44.7-40.3,116.6-53.5,153.3c45.6-22.4,80.1-62.7,95-111.4c0.4-1.2,1.7-1.9,2.9-1.5
		c1.2,0.4,1.9,1.7,1.5,2.9c-15.9,51.8-53.3,94.3-102.6,116.7C392.3,378.4,392,378.5,391.7,378.5z M239.1,378.5c-0.3,0-0.6-0.1-1-0.2
		c-93.5-42-136.1-152.6-94.9-246.5c0.4-0.8,1.2-1.4,2.1-1.4h8.4c1,0,1.9,0.6,2.2,1.6l15.9,45.2c0.4,1.2-0.2,2.5-1.4,3
		c-1.2,0.4-2.5-0.2-3-1.4L152.1,135h-5.2c-38.4,89.6,0.9,194.3,88.2,236.7L191.3,247c-0.4-1.2,0.2-2.5,1.4-3c1.2-0.4,2.5,0.2,3,1.4
		l45.6,129.9c0.3,0.9,0.1,1.9-0.6,2.5C240.2,378.2,239.7,378.5,239.1,378.5z M278.6,296.5C278.6,296.5,278.6,296.5,278.6,296.5
		c-1,0-1.9-0.7-2.2-1.6l-52.2-161.6c-0.2-0.7-0.1-1.5,0.3-2.1c0.4-0.6,1.1-1,1.9-1h5.4c0,0,0,0,0.1,0c3.8,0,6.8-3,6.9-6.8
		c0-3.8-3.1-6.9-6.9-7h-77.1c-0.8,0-1.6-0.4-2-1.2c-0.4-0.7-0.4-1.6,0-2.3c33.4-57.9,95.8-94,162.6-94.2c0,0,0,0,0,0
		c48.3,0,94.1,18.4,129,51.7c0.8,0.8,1,2.1,0.3,3c-0.7,0.9-1.9,1.2-3,0.7c-5.9-3-12.5-4.7-19.1-4.8c-13.5,0-29.7,6.5-29.7,37.6
		c2.4,13.9,8.3,27.4,17.2,38.9l0.4,0.7c12.4,20,26.4,42.8,22.6,61.2c-9,26.7-20.2,59.1-30,87c-0.3,0.9-1.2,1.4-2.2,1.6
		c-1,0-1.9-0.7-2.2-1.6l-52-161.6c-0.2-0.7-0.1-1.5,0.3-2.1c0.4-0.6,1.1-1,1.9-1h3.5c1.9,0.1,3.6-0.7,4.9-1.9c1.3-1.3,2-3,2.1-4.8
		c0-1.9-0.7-3.6-2-4.9c-1.3-1.3-3-2-4.9-2.1H269c-3.8,0.1-6.9,3.1-6.9,7c0,3.8,3.1,6.9,6.9,6.9h7c1,0,1.9,0.6,2.2,1.6l29.3,83.8
		c0.2,0.5,0.2,1,0,1.5c-8.4,25-18.1,53.3-26.6,77.6C280.5,295.8,279.6,296.5,278.6,296.5z M229.6,134.9l49.1,152
		c7.9-22.5,16.5-47.7,24.1-70.3l-28.5-81.5H269c-6.4,0-11.6-5.2-11.6-11.6c0.1-6.4,5.2-11.5,11.5-11.6l83.6,0c3.2,0,6.1,1.2,8.3,3.4
		c2.2,2.2,3.4,5.1,3.4,8.2c0,3.1-1.3,6-3.5,8.2c-2.2,2.1-5.1,3.3-8.2,3.3h-0.3l48.9,151.9c9.2-26.3,19.4-55.8,27.6-80.2
		c3.3-16.3-10.2-38.2-22.1-57.5l-0.3-0.5c-9.2-11.8-15.4-26.1-18-41.1c0-37.2,21.5-42.6,34.4-42.6c3.3,0.1,6.5,0.4,9.7,1.2
		c-32.8-27.5-73.9-42.6-117-42.6c-63.8,0.2-123.4,33.9-156.5,88.4h73c3.1,0,6,1.2,8.2,3.4c2.2,2.2,3.4,5.1,3.4,8.2
		c-0.1,6.3-5.2,11.4-11.5,11.4c0,0-0.1,0-0.1,0H229.6z M189.1,235.5c-1,0-1.9-0.6-2.2-1.6l-15.3-43.5c-0.4-1.2,0.2-2.5,1.4-3
		c1.2-0.4,2.5,0.2,3,1.4l15.3,43.5c0.4,1.2-0.2,2.5-1.4,3C189.6,235.5,189.3,235.5,189.1,235.5z"/>
</g>
<g>
	<circle class="st2" cx="296.1" cy="164.3" r="3.9"/>
</g>
<g>
	<circle class="st2" cx="300.9" cy="171.4" r="0.8"/>
</g>
<g>
	<circle class="st2" cx="292.6" cy="144.5" r="1.8"/>
</g>
<g>
	<circle class="st2" cx="297.3" cy="152.3" r="0.9"/>
</g>
<g>
	<circle class="st2" cx="305.2" cy="157.3" r="2"/>
</g>
<g>
	<circle class="st2" cx="302.7" cy="185.2" r="3.4"/>
</g>
<g>
	<circle class="st2" cx="305.8" cy="175" r="1.8"/>
</g>
<g>
	<circle class="st2" cx="314.3" cy="195.8" r="1.8"/>
</g>
<g>
	<circle class="st2" cx="307.9" cy="202.7" r="1.8"/>
</g>
<g>
	<circle class="st2" cx="283.8" cy="134.2" r="1.3"/>
</g>
<g>
	<circle class="st2" cx="296.1" cy="122.9" r="3.6"/>
</g>
<g>
	<circle class="st2" cx="312.7" cy="130.8" r="1.4"/>
</g>
<g>
	<circle class="st2" cx="321.3" cy="124.1" r="2.8"/>
</g>
<g>
	<circle class="st1" cx="402.2" cy="323.6" r="4.4"/>
</g>
<g>
	<circle class="st1" cx="387.3" cy="346" r="3.1"/>
</g>
<g>
	<circle class="st1" cx="391.6" cy="334.6" r="1.1"/>
</g>
<g>
	<circle class="st1" cx="390.9" cy="305.4" r="2.8"/>
</g>
<g>
	<circle class="st1" cx="384.4" cy="367.7" r="0.5"/>
</g>
<g>
	<circle class="st1" cx="384.7" cy="360.4" r="1.1"/>
</g>
<g>
	<path class="st4" d="M297.9,2.6C185.1,2.6,93.7,94,93.7,206.9s91.5,204.3,204.3,204.3s204.3-91.5,204.3-204.3l0,0l0,0
		C502,94.1,410.6,2.8,297.9,2.6z M297.9,21.2c47.4,0,93.1,18.3,127.4,51.1c-6.2-3.2-13.1-4.9-20.1-5c-12.1,0-32.1,5.2-32.1,39.9
		c2.5,14.7,8.5,28.5,17.6,40.3c12.2,19.9,26.2,42.3,22.6,60c-8,23.6-19.1,56.1-29.9,86.7l-52-161.6h3.5c5.1,0,9.2-4,9.3-9.1l0,0
		c0-5.1-4.2-9.3-9.3-9.3h-83.5c-5,0.2-8.9,4.2-9.1,9.1c0,5.1,4.2,9.2,9.3,9.3h6.9l29.3,83.8c-7.8,22.6-17.3,50.8-26.8,77.8
		l-52.2-161.6h5.4c5.1,0,9.2-4,9.3-9.1c0,0,0,0,0,0l0,0c0-5.1-4.1-9.3-9.2-9.3c0,0,0,0,0,0h-77C170.5,56.8,231.6,21.4,297.9,21.2z
		 M112.2,206.9c0-25.6,5.3-50.9,15.6-74.3h8.2l85.4,243.6C155,346.1,112.2,279.8,112.2,206.9z M297.9,392.5
		c-16.8,0-33.4-2.3-49.6-6.9c8.2-22.8,31.8-89.1,49.6-140.7l49.6,140.7C331.4,390.2,314.7,392.5,297.9,392.5z M374.2,376.1
		c12.6-34.5,39.8-111.6,55.5-158.8c0.4-0.6,0.6-1.3,0.8-2.1c0.3-0.9,0.6-1.8,0.8-2.8c2.4-6.9,4.2-13,5.9-18
		c9.8-31.2,19.1-71.7,11.5-95.4c59.8,82.9,41,198.5-41.8,258.2C396.6,364.7,385.7,371,374.2,376.1z"/>
</g>
<g>
	<path class="st1" d="M503,200.4v4.7c1.6,112.8-88.5,205.6-201.3,207.2S96.2,323.7,94.5,210.9c0-2,0-3.9,0-5.9v-4.7
		c2.8,112.8,96.5,202,209.3,199.2C412.7,396.9,500.3,309.3,503,200.4z"/>
</g>
<g>
	<path class="st1" d="M372,372.8c-0.3,0-0.5,0-0.8-0.1c-1.2-0.4-1.8-1.8-1.4-3l24.1-66.7c0.4-1.2,1.8-1.8,3-1.4
		c1.2,0.4,1.8,1.8,1.4,3l-24.1,66.7C373.8,372.2,373,372.8,372,372.8z"/>
</g>
<g>
	<path class="st1" d="M249.7,371c-0.3,0-0.5,0-0.8-0.1c-1.2-0.4-1.8-1.8-1.4-3l24-66.7c0.4-1.2,1.8-1.8,3-1.4c1.2,0.4,1.8,1.8,1.4,3
		l-24,66.7C251.5,370.4,250.6,371,249.7,371z"/>
</g>
<g>
	<path class="st1" d="M355.3,223.4c-1,0-1.9-0.6-2.2-1.6l-21.2-67.7c-0.4-1.2,0.3-2.5,1.5-2.9c1.2-0.4,2.5,0.3,2.9,1.5l21.2,67.7
		c0.4,1.2-0.3,2.5-1.5,2.9C355.8,223.3,355.6,223.4,355.3,223.4z"/>
</g>
<g>
	<path class="st3" d="M297.9,413.4c-113.9,0-206.6-92.7-206.6-206.6C91.3,92.9,184,0.3,297.9,0.3c0,0,0,0,0,0
		c113.7,0.2,206.4,92.9,206.6,206.6C504.5,320.8,411.8,413.4,297.9,413.4z M297.9,4.9C186.6,4.9,96,95.5,96,206.9
		c0,111.4,90.6,201.9,201.9,201.9c111.4,0,201.9-90.6,201.9-201.9C499.7,95.7,409.1,5.1,297.9,4.9L297.9,4.9z M297.9,394.9
		c-16.9,0-33.8-2.3-50.2-7c-0.6-0.2-1.1-0.6-1.4-1.2c-0.3-0.6-0.3-1.2-0.1-1.8c1.2-3.2,28.7-80.3,49.6-140.7
		c0.3-0.9,1.2-1.6,2.2-1.6c0,0,0,0,0,0c1,0,1.9,0.6,2.2,1.6l18.4,52.4c0.4,1.2-0.2,2.5-1.4,3c-1.2,0.4-2.5-0.2-3-1.4L297.9,252
		c-18.8,54.2-41.8,118.8-46.6,132.1c30.5,8.2,62.6,8.2,93.1,0l-23.1-65.4c-0.4-1.2,0.2-2.5,1.4-3c1.2-0.4,2.5,0.2,3,1.4l23.9,67.8
		c0.2,0.6,0.2,1.3-0.1,1.8c-0.3,0.6-0.8,1-1.4,1.2C331.7,392.5,314.8,394.9,297.9,394.9z M374.2,378.5c-0.6,0-1.1-0.2-1.6-0.6
		c-0.7-0.6-0.9-1.6-0.6-2.5c12.6-34.6,39.8-111.8,55.5-158.7c0.1-0.2,0.1-0.3,0.2-0.4c0.2-0.4,0.4-0.8,0.5-1.3
		c0-0.1,0.1-0.3,0.1-0.4c0.3-0.8,0.5-1.6,0.6-2.4c1.3-4,2.4-7.3,3.4-10.5c0.9-2.9,1.8-5.5,2.6-7.9c9.4-29.8,19-70.4,11.5-94
		c-0.4-1.1,0.1-2.3,1.2-2.8c1-0.5,2.3-0.2,2.9,0.7c29.9,41.5,41.6,94,32.1,144.3c-0.2,1.3-1.5,2.1-2.7,1.8c-1.3-0.2-2.1-1.5-1.8-2.7
		c8.6-45.2-0.5-92.3-24.8-131c2.7,24.8-5.6,59-13.9,85.2c-0.9,2.4-1.7,5-2.6,7.9c-1,3.2-2.1,6.6-3.4,10.2c-0.1,0.7-0.4,1.7-0.7,2.6
		c-0.2,0.8-0.5,1.6-0.9,2.4c-14.9,44.7-40.3,116.6-53.5,153.3c45.6-22.4,80.1-62.7,95-111.4c0.4-1.2,1.7-1.9,2.9-1.5
		c1.2,0.4,1.9,1.7,1.5,2.9c-15.9,51.8-53.3,94.3-102.6,116.7C374.9,378.4,374.5,378.5,374.2,378.5z M221.5,378.5
		c-0.3,0-0.6-0.1-1-0.2c-93.5-42-136.1-152.6-95-246.5c0.4-0.8,1.2-1.4,2.1-1.4h8.2c1,0,1.9,0.6,2.2,1.5l16,45
		c0.4,1.2-0.2,2.5-1.4,3c-1.2,0.4-2.5-0.2-3-1.4L134.2,135h-5c-38.4,89.6,0.9,194.3,88.2,236.7L173.8,247c-0.4-1.2,0.2-2.5,1.4-3
		c1.2-0.4,2.5,0.2,3,1.4l45.5,129.9c0.3,0.9,0.1,1.9-0.6,2.5C222.6,378.2,222,378.5,221.5,378.5z M261.1,296.5
		C261.1,296.5,261.1,296.5,261.1,296.5c-1,0-1.9-0.7-2.2-1.6l-52.3-161.6c-0.2-0.7-0.1-1.5,0.3-2.1c0.4-0.6,1.1-1,1.9-1h5.4
		c0,0,0,0,0.1,0c3.8,0,6.8-3,6.9-6.8c0-3.8-3.1-6.9-6.9-7h-77c-0.8,0-1.6-0.4-2-1.2c-0.4-0.7-0.4-1.6,0-2.3
		c33.4-57.9,95.8-94,162.6-94.2c0,0,0,0,0,0c48.3,0,94.1,18.4,129,51.7c0.8,0.8,1,2.1,0.3,3c-0.7,0.9-1.9,1.2-3,0.7
		c-5.9-3-12.5-4.7-19.1-4.8c-13.5,0-29.7,6.5-29.7,37.6c2.4,13.9,8.3,27.4,17.2,38.9l0.4,0.7c12.4,20,26.4,42.8,22.6,61.2
		c-9,26.7-20.2,59.1-30,87c-0.3,0.9-1.2,1.6-2.2,1.6c0,0,0,0,0,0c-1,0-1.9-0.7-2.2-1.6l-52-161.6c-0.2-0.7-0.1-1.5,0.3-2.1
		c0.4-0.6,1.1-1,1.9-1h3.5c3.9-0.1,6.9-3,7-6.8c0-3.8-3.2-6.9-7-6.9h-83.5c-3.6,0.1-6.7,3.2-6.8,6.9c0,3.7,3.2,6.8,7,6.9h6.9
		c1,0,1.9,0.6,2.2,1.6l29.3,83.8c0.2,0.5,0.2,1,0,1.5c-2.7,7.8-5.6,16.4-8.7,25.3c-5.7,16.8-11.9,34.9-18.1,52.5
		C263,295.8,262.1,296.5,261.1,296.5z M212.1,134.9l49.1,152c5.4-15.5,10.8-31.3,15.8-45.9c2.9-8.6,5.8-16.9,8.4-24.5l-28.5-81.5
		h-5.2c-6.4,0-11.6-5.2-11.6-11.6c0.2-6.3,5.2-11.3,11.3-11.5l83.6,0c6.4,0,11.6,5.2,11.6,11.6c-0.1,6.4-5.4,11.3-11.6,11.4h-0.3
		l48.9,151.9c9.2-26.3,19.4-55.8,27.6-80.2c3.3-16.3-10.2-38.2-22.1-57.5l-0.3-0.5c-9.2-11.8-15.4-26.1-18-41.1
		c0-37.2,21.5-42.6,34.4-42.6c3.3,0.1,6.5,0.4,9.7,1.2c-32.8-27.5-73.9-42.6-117-42.6c-63.8,0.2-123.4,33.9-156.5,88.4h72.9
		c3.1,0,6,1.2,8.2,3.4c2.2,2.2,3.4,5.1,3.4,8.2c-0.1,6.4-5.5,11.4-11.6,11.4H212.1z M171.2,235.4c-1,0-1.9-0.6-2.2-1.6l-15.1-43.5
		c-0.4-1.2,0.2-2.5,1.4-3c1.2-0.4,2.5,0.2,3,1.4l15.1,43.5c0.4,1.2-0.2,2.5-1.4,3C171.7,235.4,171.4,235.4,171.2,235.4z"/>
</g>
<g>
	<circle class="st1" cx="384.7" cy="323.6" r="4.4"/>
</g>
<g>
	<circle class="st1" cx="369.9" cy="346" r="3.1"/>
</g>
<g>
	<circle class="st1" cx="374.1" cy="334.6" r="1.1"/>
</g>
<g>
	<circle class="st1" cx="373.5" cy="305.4" r="2.8"/>
</g>
<g>
	<circle class="st1" cx="366.9" cy="367.7" r="0.5"/>
</g>
<g>
	<circle class="st1" cx="367.3" cy="360.4" r="1.1"/>
</g>
<g>
	<path class="st5" d="M108,300.8h80.7l6.9,13.7c0,0-25.8,9-32.8,1.4c-5.6,4.8-21.6,13.7-27.6,0.6c-9.5,2.3-27.6,5.8-35.2-2
		C104.1,304.4,108,300.8,108,300.8z"/>
	<path class="st6" d="M113.5,395.1h70.5l9-13.2c0,0,30.8-22.9,4.3-66.4c-10.8,3.1-28.8,6.4-35.7,1.1c-5.6,6.8-21.9,9-26.4-0.3
		c-11.5,4.1-33.2,2.1-35.2-2c-5.4,10-14.4,19.8-10.2,48.9c10.5,15.9,10.3,15.5,14.3,18.7C108.2,385.1,113.5,395.1,113.5,395.1z"/>
	<path class="st7" d="M174.6,395.1h9.5l9-13.2c0,0,30.8-22.9,4.3-66.4c-4.3,1.2-9.7,2.5-15.1,3.2c6.3,16.2,6.3,16.2,6.4,39.2
		C188.1,373.1,174.6,395.1,174.6,395.1z"/>
	<path class="st8" d="M177,301l11.7-0.2l6.9,13.7c0,0-6.6,4.6-12.6,4.6C180,312,177,301,177,301z"/>
	<path class="st9" d="M211.9,236c-0.4,0-0.8,0-1.1,0C211.2,236.1,211.5,236.1,211.9,236z"/>
	<path class="st9" d="M211.9,236c-0.4,0.1-0.8,0.1-1.1,0C211.2,236.2,211.5,236.2,211.9,236z"/>
	<path class="st10" d="M84.6,347.2c0,0.3,0,0.5,0,0.8C84.7,347.7,84.7,347.4,84.6,347.2z"/>
	<path class="st10" d="M84.6,347.2c0.1,0.3,0.1,0.5,0,0.8C84.8,347.7,84.8,347.4,84.6,347.2z"/>
	<path class="st11" d="M84.6,351.3c0,0.1,0,0.2,0,0.3C84.7,351.5,84.7,351.4,84.6,351.3z"/>
	<path class="st11" d="M84.6,351.3c0.1,0.1,0.1,0.2,0,0.3C84.8,351.5,84.7,351.4,84.6,351.3z"/>
	<path class="st12" d="M126.2,383.3c7.2,1.8,14.5,2.8,22.6,2.8c1.1,0,2.9-0.1,4.7-0.2c7.4-0.5,14.6-1.9,21.7-4.1
		c2.7-0.8-0.7,0.3,1.9-0.8c1.7-0.7,2.5-2.5,1.8-4.1c-0.7-1.6-2.4-2.3-4.2-1.7c-7.2,2.8-8.7,2.8-16.4,3.8c-6.4,0.9-12.8,1-19.2,0.2
		c-8.2-1-16.1-3-23.8-6c-1.7-0.7-3.5,0.1-4.2,1.7c-0.6,1.6,0.2,3.4,1.9,4.1C117.4,380.9,121.7,382.2,126.2,383.3z M149.4,381.1
		c0.3-0.4,0.8-0.5,1.2-0.3c0.5,0.2,0.4,0.6,0.4,1c0,0.5,0,1,0,1.6c0,0.1,0.1,0.4-0.1,0.3c-0.5-0.2-1.1,0.3-1.5-0.2
		c-0.3-0.4-0.1-1,0.5-1.5c0,0,0,0,0,0s0,0,0,0C149.6,381.8,148.9,381.8,149.4,381.1z"/>
	<path class="st13" d="M113.8,283.7c11.2,0,22.5,0,33.7,0c0.8,0,1.7-0.1,2.4,0.3c0.1,0.1,0.2,0.1,0.2,0.2c0.3-0.1,0.4-0.3,0.3-0.6
		c-0.5,0-0.9,0-1.4,0c-11.8,0-23.6,0-35.4,0c0,0,0,0,0,0.1C113.6,283.7,113.7,283.7,113.8,283.7z"/>
	<path class="st13" d="M149.9,284c-0.8-0.4-1.6-0.3-2.4-0.3c-11.2,0-22.5,0-33.7,0c-0.1,0-0.2,0-0.2,0c0,0,0,0,0,0
		c0.3,0,0.6,0,0.9,0c10.8,0,21.7,0,32.5,0c1.1,0,2.1-0.1,3.1,0.5c0,0,0,0,0,0C150,284.1,150,284.1,149.9,284z"/>
	<path d="M112.5,284.4c-0.3,0.2-0.6,0.5-0.6,0.9c0,0.4,0.1,0.6,0.6,0.6c0.8,0,0.8,0,0.8-0.8c0-0.3,0-0.6,0-0.9
		c0-0.2,0.1-0.3,0.2-0.4c0,0,0,0,0-0.1c0,0,0,0,0,0c-0.3,0-0.6,0-0.9,0C113.1,284,112.7,284.2,112.5,284.4z M112.7,285.4
		c-0.1,0-0.2,0-0.2-0.1c-0.1-0.3,0-0.4,0.3-0.6C112.8,285,112.9,285.2,112.7,285.4z"/>
	<path d="M112.3,284.3c-0.5,0.4-0.7,1-0.5,1.5c0.1,0.1,1.4,0.3,1.5,0.2c0.2-0.1,0.1-0.3,0.1-0.4c0.1-0.6-0.1-1.2,0.1-1.9
		c0,0,0,0,0,0c0,0,0,0,0,0c0,0,0,0,0,0c-0.1,0.1-0.2,0.2-0.2,0.4c0,0.3,0,0.6,0,0.9c0.1,0.8,0,0.8-0.8,0.8c-0.5,0-0.6-0.2-0.6-0.6
		c0-0.4,0.3-0.6,0.6-0.9c0.2-0.2,0.6-0.4,0.1-0.7C113,284.1,112.5,284.1,112.3,284.3z"/>
	<path d="M113.5,283.7C113.5,283.7,113.5,283.7,113.5,283.7C113.5,283.7,113.5,283.7,113.5,283.7
		C113.5,283.7,113.5,283.6,113.5,283.7C113.5,283.6,113.5,283.6,113.5,283.7z"/>
	<path d="M113.5,283.7C113.5,283.7,113.5,283.7,113.5,283.7C113.5,283.7,113.5,283.7,113.5,283.7
		C113.5,283.7,113.5,283.7,113.5,283.7C113.5,283.7,113.5,283.7,113.5,283.7z"/>
	<path d="M150,284.2c0,0.1-0.1,0.2-0.1,0.2c-0.1,0.1-0.2,0.2-0.3,0.4c-0.1,0.3-0.2,0.6,0.1,0.8c0.3,0.2,0.7,0.1,1.1,0
		c0.2-0.1,0.1-0.4,0.1-0.6c0-0.5-0.1-1.1,0.3-1.5c-0.3,0-0.5,0-0.8,0C150.6,284,150.4,284.2,150,284.2z M150.3,285.4
		c0,0-0.2,0-0.2-0.1c-0.1-0.3,0.1-0.4,0.3-0.7C150.4,284.9,150.5,285.2,150.3,285.4z"/>
	<path d="M150.9,285.1c0,0.2,0.1,0.5-0.1,0.6c-0.3,0.1-0.7,0.2-1.1,0c-0.3-0.2-0.3-0.5-0.1-0.8c0.1-0.1,0.2-0.3,0.3-0.4
		c0.1-0.1,0.1-0.2,0.1-0.2c0,0,0,0,0,0c-0.6,0.5-0.8,1-0.6,1.5c0.1,0.3,1,0.4,1.5,0.3c0.2-0.1,0.1-0.2,0.1-0.3c0-0.7-0.1-1.4,0.1-2
		C150.7,284.1,150.9,284.6,150.9,285.1z"/>
	<path d="M150,284.2C150,284.2,150,284.2,150,284.2c0.4,0,0.5-0.2,0.3-0.6C150.4,283.9,150.3,284.1,150,284.2z"/>
	<path d="M150,284.2C150,284.2,150,284.2,150,284.2C150,284.2,150,284.2,150,284.2C150,284.2,150,284.2,150,284.2z"/>
	<path d="M187.9,383.5c0.6,0.2,0.5-0.2,0.6-0.6c0-0.3-0.1-0.6,0.1-0.9c-0.6,0.5-0.9,1.2-1.4,1.8
		C187.4,383.6,187.7,383.4,187.9,383.5z"/>
	<path d="M188.4,383.7c0.1,0.1,0.3-0.1,0.3-0.2c-0.1-0.5,0.1-1,0-1.5c-0.2,0.3-0.1,0.6-0.1,0.9c0,0.4,0.1,0.8-0.6,0.6
		c-0.2-0.1-0.5,0.1-0.7,0.3c0,0,0,0,0,0C187.6,383.8,188,383.5,188.4,383.7z"/>
	<path class="st14" d="M112.4,283.7c-0.2,0-0.5,0-0.7,0C112,283.8,112.2,283.8,112.4,283.7z"/>
	<path class="st14" d="M112.1,284c0.3,0,0.4-0.1,0.4-0.4c-0.2,0.2-0.5,0.2-0.7,0C111.7,283.9,111.8,284,112.1,284z"/>
	<path class="st15" d="M184.6,387.4c-0.2,0.2-0.3,0.4-0.5,0.6C184.4,387.9,184.5,387.7,184.6,387.4z"/>
	<path class="st15" d="M184.6,387.4C184.6,387.4,184.6,387.4,184.6,387.4c0,0.3-0.2,0.5-0.5,0.6v0
		C184.6,388,184.7,387.8,184.6,387.4z"/>
	<path class="st16" d="M102.4,376.2L102.4,376.2c0.1-0.1,0.3-0.1,0.2-0.2c-0.1-0.2-0.3,0-0.4,0C102.2,376,102.3,376.1,102.4,376.2z"
		/>
	<path class="st16" d="M102.1,376c0.1,0.1,0.2,0.2,0.2,0.3C102.3,376.1,102.2,376,102.1,376z"/>
	<path class="st17" d="M161.3,321.7c0.2-0.1,0.3-0.2,0.3-0.4C161.5,321.5,161.3,321.5,161.3,321.7z"/>
	<path class="st17" d="M161.3,321.7c0-0.2,0.2-0.3,0.3-0.4C161.5,321.4,161.2,321.4,161.3,321.7z"/>
	<path class="st15" d="M91.7,337c0-0.1-0.1-0.3-0.2-0.3C91.5,336.9,91.6,337,91.7,337z"/>
	<path class="st15" d="M91.5,337c0.1,0.1,0.2,0,0.3,0c-0.1,0-0.2-0.1-0.2-0.3C91.5,336.8,91.4,336.9,91.5,337z"/>
	<path class="st18" d="M111.7,296.3c24.3,0,48.6,0,72.9,0c0.2,0,0.3,0,0.5,0c2.1-0.1,3.5-2.2,2.9-4.2c-0.5-1.4-1.6-2.2-3.3-2.2
		c-12.2,0-24.3,0-36.5,0c-12.2,0-24.3,0-36.5,0c-0.3,0-0.5,0-0.8,0c-2,0.3-3.3,2.2-2.6,4.1C108.7,295.5,109.9,296.3,111.7,296.3z"/>
	<path class="st18" d="M179.1,283.6c0.6,0,1.1,0,1.7,0c0,0,0,0,0,0c0.5,0,1,0,1.6,0c0.4,0,0.6-0.1,0.7-0.5c0.5-2.5,1.1-4.9,1.7-7.4
		c0.4-1.6,0.4-3.3,1.8-4.6c0.2-0.2,0-0.2-0.1-0.3c-1-0.8-1.9-1.7-2.9-2.5c-0.1-0.1-0.2-0.3-0.4-0.1c-0.5,0.7-1.4,1.3-1.6,2.3
		c-1,4.2-2,8.5-2.8,12.8C178.7,283.5,178.8,283.6,179.1,283.6z"/>
	<path class="st18" d="M200,249.2c1,0.9,2,1.7,2.9,2.6c0.2,0.2,0.3,0.1,0.5,0c2.3-2.4,4.1-5.2,5.6-8.2c0.1-0.1,0.1-0.3,0.2-0.4
		c0-0.3-0.1-0.3-0.6-0.1c-2.4,1.1-4.7,2.4-6.8,3.9c-0.7,0.5-1.3,0.9-1.8,1.5C199.8,248.8,199.7,249,200,249.2z"/>
	<path d="M155,319.2c0.4,0.2,0.8,0,1.1-0.3c0,0.7,0,0.7-0.7,0.7c-0.4,0-0.6,0.1-0.6,0.6c0,0.5,0.3,0.4,0.5,0.4c0.2,0,0.4,0,0.6,0
		c0.9,0,1.2-0.3,1.2-1.1c0-0.8,0-1.7,0-2.5C156.7,318,156,318.7,155,319.2z"/>
	<path d="M155,319.2c1-0.5,1.7-1.3,2.1-2.3C156.5,317.8,155.8,318.5,155,319.2z"/>
	<path d="M192.2,254.3c0.3-0.3,0.7-0.7,0.9-1.1C192.7,253.4,192.4,253.8,192.2,254.3z"/>
	<path d="M188.7,283.9c0-0.6-0.3-0.9-0.9-0.9c-0.6,0-0.8,0.3-0.8,1c0.2-0.1,0.5,0.1,0.6-0.2c0.1-0.2,0.2-0.3,0.3-0.2
		c0.1,0.1,0,0.3-0.1,0.4c-0.1,0.1-0.2,0.1-0.3,0.2c0,0,0,0,0,0l0,0c-0.6,0.5-0.8,1-0.6,1.5c0.1,0.2,1.1,0.4,1.5,0.3
		c0.2-0.1,0.1-0.2,0.1-0.3C188.7,285.1,188.7,284.5,188.7,283.9z M187.9,285.4c-0.1,0.1-0.2,0-0.2-0.1c-0.1-0.3,0.1-0.4,0.3-0.6
		C188,285,188.1,285.2,187.9,285.4z"/>
	<path d="M168.5,300.8c-0.4,0.3-0.4,0.8-0.2,1.2c0.2,0.4,0.5,0.4,0.8,0.2c0,0,0.1,0,0.2,0c0.7,0.3,0.7-0.1,0.6-0.6
		c0-0.2,0-0.4,0-0.6c0,0,0,0,0,0c0-0.4,0-0.8,0-1.2c0-0.4-0.3-0.6-0.7-0.6c-0.4,0-0.7,0-0.9,0.4c-0.1,0.2-0.2,0.4,0,0.6
		c0.2,0.1,0.5,0.2,0.6-0.2c0-0.1,0.1-0.2,0.3-0.1c0.2,0.1,0.1,0.3,0,0.4C168.9,300.5,168.7,300.6,168.5,300.8z M169,301.7
		c0,0-0.2,0-0.2-0.1c-0.1-0.3,0-0.5,0.3-0.6C169.2,301.2,169.3,301.5,169,301.7z"/>
	<path d="M112,315.6c0,0.2-0.2,0.3-0.3,0.5c0.1,0.2-0.1,0.4,0.2,0.5c0.2,0,0.4,0.1,0.5-0.2c0-0.1,0.1-0.2,0.2-0.1
		c0.1,0.1,0.1,0.2,0.1,0.3c-0.1,0.2-0.2,0.3-0.4,0.3c0,0,0,0,0,0c-0.5,0.5-0.7,1-0.5,1.5c0.1,0.1,1.3,0.3,1.5,0.2
		c0.2-0.1,0.1-0.2,0.1-0.4c0-0.7,0-1.5,0-2.2C112.9,316.1,112.4,315.9,112,315.6z M112.7,317.9c-0.1,0.1-0.2,0-0.2-0.1
		c-0.1-0.3,0.1-0.4,0.3-0.6C112.8,317.5,112.9,317.8,112.7,317.9z"/>
	<path d="M113.4,316c-0.5-0.1-0.9-0.3-1.4-0.4C112.4,315.9,112.9,316.1,113.4,316z"/>
	<path d="M194.1,252.4c0-0.8,0-1.5,0-2.3c0-0.3,0-0.5-0.5-0.5c-0.4,0-0.6,0.1-0.6,0.5c0,1,0,2,0,3
		C193.4,252.8,193.5,252.2,194.1,252.4z"/>
	<path d="M194.1,252.4c-0.7-0.2-0.7,0.4-1,0.7C193.5,253,193.6,252.4,194.1,252.4z"/>
	<g>
		<path class="st18" d="M200,259.2c0.1-0.3,0.1-0.8-0.2-1c-0.3-0.3-0.3-0.5-0.2-0.8c-1.8-1.6-3.7-3.3-5.5-4.9c-0.5,0-0.6,0.6-1,0.7
			l0,0c-0.2,0.4-0.6,0.8-0.9,1.1c-0.3,0.4-0.7,0.8-1,1.2c-1.6,1.9-3.3,3.8-4.9,5.7c-0.3,0.3-0.5,0.6-0.1,1c2.1,1.8,4.1,3.6,6.2,5.5
			c0.3,0.2,0.5,0.3,0.7,0c0.3-0.3,0.5-0.6,0.8-0.9c1.9-2.2,3.7-4.4,5.6-6.5c-0.1-0.2-0.2-0.5-0.3-0.7
			C199.6,259.6,200,259.5,200,259.2z"/>
		<path class="st18" d="M199.7,257.3C199.7,257.3,199.6,257.3,199.7,257.3c0.1,0.5,0.5,0.9,0.5,1.5c0,0.6-0.2,0.8-0.8,0.8
			c0.1,0.2,0.2,0.4,0.1,0.6C201.3,258.2,201.2,258.7,199.7,257.3z"/>
	</g>
	<path class="st19" d="M199.9,258.1c0.3,0.3,0.3,0.7,0.2,1c-0.1,0.3-0.4,0.4-0.8,0.3c0.1,0.3,0.2,0.5,0.3,0.7c0.1-0.2,0-0.4-0.1-0.6
		c0.6,0,0.8-0.2,0.8-0.8c0-0.6-0.4-1-0.6-1.5C199.6,257.6,199.6,257.9,199.9,258.1z"/>
	<path d="M199.7,379.7c0.1,0,0.1,0,0.2,0c0.2-0.3,0.5-0.6,0.7-0.8c0-0.1,0-0.1,0-0.2C200.3,379,200,379.3,199.7,379.7z"/>
	<path class="st15" d="M111.8,316.1c-0.5,0.7,0.4,0.5,0.5,0.8c0,0,0,0,0,0c0-0.1,0.1-0.2,0.2-0.3
		C111.7,316.7,111.7,316.7,111.8,316.1z"/>
	<path class="st15" d="M112.8,316.5c0.1-0.1,0.1-0.2-0.1-0.3c-0.1,0-0.2,0-0.2,0.1c-0.1,0.3-0.3,0.3-0.5,0.2
		c-0.3-0.1-0.1-0.3-0.2-0.5c0,0.6,0,0.6,0.7,0.5c0,0.1-0.1,0.2-0.2,0.3C112.5,316.8,112.7,316.7,112.8,316.5z"/>
	<path class="st13" d="M187.5,284c-0.2,0-0.4,0-0.5,0c0.2,0.2,0.5,0,0.6,0.2C187.7,284,187.7,284,187.5,284z"/>
	<path class="st13" d="M187.9,284.1c0.1-0.1,0.2-0.3,0.1-0.4c-0.2-0.2-0.3,0-0.3,0.2c-0.1,0.3-0.4,0.1-0.6,0.2c0.2,0.1,0.4,0,0.5,0
		c0.2,0,0.2,0,0.1,0.2c0,0,0,0,0,0C187.7,284.2,187.8,284.1,187.9,284.1z"/>
	<path class="st20" d="M100,383.1c0,0.2,0.1,0.3,0.2,0.4c0,0,0.1,0,0.1-0.1C100.2,383.3,100.1,383.2,100,383.1z"/>
	<path class="st20" d="M100,383c0,0,0,0.1,0,0.1c0.1,0.1,0.2,0.2,0.3,0.3c0,0,0.1-0.1,0.1-0.1C100.3,383.2,100.2,383,100,383z"/>
	<path d="M149.5,381.7c0.2,0.1,0.5,0.1,0.5-0.2c0-0.1,0.1-0.1,0.3-0.1c0.1,0.1,0.1,0.2,0,0.3c-0.1,0.2-0.2,0.3-0.4,0.3c0,0,0,0,0,0
		c-0.5,0.5-0.7,1.1-0.5,1.5c0.4,0.6,1,0,1.5,0.2c0.2,0.1,0.1-0.2,0.1-0.3c0-0.5,0-1,0-1.6c0-0.4,0-0.8-0.4-1
		c-0.5-0.2-0.9-0.1-1.2,0.3C149.4,381.3,149.2,381.6,149.5,381.7z M150.3,383.1c-0.1,0.1-0.2,0-0.2-0.1c-0.1-0.3,0.1-0.4,0.3-0.6
		C150.4,382.7,150.5,382.9,150.3,383.1z"/>
	<path class="st21" d="M149.9,382C149.9,382,149.9,382,149.9,382c0-0.1,0.1-0.1,0.2-0.2c-0.2,0-0.5,0.1-0.7,0c0,0-0.1-0.1-0.1-0.1
		c0-0.2-0.1-0.4,0.1-0.5C148.9,381.8,149.6,381.8,149.9,382z"/>
	<path class="st21" d="M149.3,381.6c0,0,0,0.1,0.1,0.1c0.2,0.1,0.4,0,0.7,0c-0.1,0.1-0.1,0.1-0.2,0.2c0.2,0,0.3-0.2,0.4-0.3
		c0.1-0.1,0.1-0.2,0-0.3c-0.1-0.1-0.2,0-0.3,0.1c-0.1,0.3-0.3,0.3-0.5,0.2c-0.3-0.1-0.1-0.4-0.1-0.6
		C149.3,381.3,149.3,381.5,149.3,381.6z"/>
	<path class="st22" d="M112.8,284.7c-0.3,0.2-0.4,0.3-0.3,0.6c0,0.1,0.1,0.1,0.2,0.1C112.9,285.2,112.8,285,112.8,284.7z"/>
	<path class="st23" d="M150.4,284.6c-0.3,0.2-0.4,0.4-0.3,0.7c0,0,0.2,0.1,0.2,0.1C150.5,285.2,150.4,284.9,150.4,284.6z"/>
	<path class="st22" d="M187.6,285.3c0,0.1,0.2,0.2,0.2,0.1c0.2-0.2,0.1-0.4,0.1-0.7C187.7,284.8,187.5,285,187.6,285.3z"/>
	<path class="st15" d="M131.2,301.5c0,0.1,0.2,0.2,0.2,0.1c0.2-0.2,0.1-0.4,0.1-0.7C131.3,301.1,131.2,301.3,131.2,301.5z"/>
	<path class="st15" d="M168.8,301.6c0,0,0.2,0.1,0.2,0.1c0.3-0.2,0.1-0.4,0.1-0.7C168.9,301.1,168.8,301.3,168.8,301.6z"/>
	<path class="st21" d="M112.5,317.9c0,0.1,0.1,0.1,0.2,0.1c0.2-0.2,0.1-0.4,0.1-0.7C112.5,317.4,112.4,317.6,112.5,317.9z"/>
	<path class="st22" d="M150,383c0,0.1,0.1,0.2,0.2,0.1c0.2-0.2,0.1-0.4,0.1-0.7C150.1,382.6,150,382.7,150,383z"/>
	<path class="st24" d="M179.1,283.6c0.6,0,1.1,0,1.7,0c0,0,0,0,0,0c0.5,0,1,0,1.6,0c0.4,0,0.6-0.1,0.7-0.5c0.5-2.5,1.1-4.9,1.7-7.4
		c0.4-1.6,0.4-3.3,1.8-4.6c0.2-0.2,0-0.2-0.1-0.3c-1-0.8-1.9-1.7-2.9-2.5c-0.1-0.1-0.2-0.3-0.4-0.1c-0.5,0.7-1.4,1.3-1.6,2.3
		c-1,4.2-2,8.5-2.8,12.8C178.7,283.5,178.8,283.6,179.1,283.6z"/>
	<path class="st24" d="M188.7,283.9c0-0.6-0.3-0.9-0.9-0.9c-0.6,0-0.8,0.3-0.8,1c0.2,0.2,0.5,0,0.6,0.2l0,0c-0.6,0.5-0.8,1-0.6,1.5
		c0.1,0.2,1.1,0.4,1.5,0.3c0.2-0.1,0.1-0.2,0.1-0.3C188.7,285.1,188.7,284.5,188.7,283.9z"/>
	<path class="st24" d="M131.4,300.4c-0.2,0.2-0.5,0.3-0.6,0.5c-0.3,0.3-0.2,0.7-0.1,1.1c0.1,0.2,0.2,0.3,0.5,0.3
		c1.2,0,1.2,0,1.2-1.2c0,0,0,0,0-0.1c0,0,0,0,0,0c0-0.4,0-0.8-0.1-1.2c-0.1-0.4-0.4-0.6-0.8-0.6c-0.4,0-0.7,0.1-0.8,0.5
		c0,0.2-0.1,0.4,0.1,0.5c0.2,0.1,0.4,0.2,0.5-0.1c0.1-0.2,0.2-0.3,0.3-0.1C131.7,300.2,131.5,300.3,131.4,300.4z"/>
	<path class="st24" d="M168.5,300.8c-0.4,0.3-0.4,0.8-0.2,1.2c0.2,0.4,0.5,0.4,0.8,0.2c0,0,0.1,0,0.2,0c0.7,0.3,0.7-0.1,0.6-0.6
		c0-0.2,0-0.4,0-0.6c0,0,0,0,0,0c0-0.4,0-0.8,0-1.2c0-0.4-0.3-0.6-0.7-0.6c-0.4,0-0.7,0-0.9,0.4c-0.1,0.2-0.2,0.4,0,0.6
		c0.2,0.1,0.5,0.2,0.6-0.2c0-0.1,0.1-0.2,0.3-0.1c0.2,0.1,0.1,0.3,0,0.4C168.9,300.5,168.7,300.6,168.5,300.8z"/>
	<path class="st24" d="M111.7,296.3c24.3,0,48.6,0,72.9,0c0.2,0,0.3,0,0.5,0c2.1-0.1,3.5-2.2,2.9-4.2c-0.5-1.4-1.6-2.2-3.3-2.2
		c-12.2,0-24.3,0-36.5,0c-12.2,0-24.3,0-36.5,0c-0.3,0-0.5,0-0.8,0c-2,0.3-3.3,2.2-2.6,4.1C108.7,295.5,109.9,296.3,111.7,296.3z"/>
	<path class="st24" d="M186.2,262.2c2.1,1.8,4.1,3.6,6.2,5.5c0.3,0.2,0.5,0.3,0.7,0c0.3-0.3,0.5-0.6,0.8-0.9
		c1.9-2.2,3.7-4.4,5.6-6.5c1.8-2,1.7-1.5,0.2-2.8c0,0,0,0-0.1,0c-1.8-1.6-3.7-3.3-5.5-4.9c0-0.8,0-1.5,0-2.3c0-0.3,0-0.5-0.5-0.5
		c-0.4,0-0.6,0.1-0.6,0.5c0,1,0,2,0,3l0,0c-0.4,0.1-0.5-0.1-0.5-0.5c0-0.9,0-1.7,0-2.6c0-0.5-0.2-0.4-0.5-0.4
		c-0.3,0-0.5,0.1-0.5,0.4c0,0.8,0,1.6,0,2.4c0,0.7,0,1.4,0.6,1.8c-0.3,0.4-0.7,0.8-1,1.2c-1.6,1.9-3.3,3.8-4.9,5.7
		C186,261.5,185.8,261.8,186.2,262.2z"/>
	<path class="st24" d="M200,249.2c1,0.9,2,1.7,2.9,2.6c0.2,0.2,0.3,0.1,0.5,0c2.3-2.4,4.1-5.2,5.6-8.2c0.1-0.1,0.1-0.3,0.2-0.4
		c0-0.3-0.1-0.3-0.6-0.1c-2.4,1.1-4.7,2.4-6.8,3.9c-0.7,0.5-1.3,0.9-1.8,1.5C199.8,248.8,199.7,249,200,249.2z"/>
	<path class="st24" d="M112.2,397.5h0.2C112.4,397.4,112.3,397.5,112.2,397.5z"/>
	<path class="st24" d="M187.2,303.4c-0.4-0.7-0.9-1.2-1.8-0.9c-0.2,0.1-0.4,0-0.6,0c-24.3,0-48.5,0-72.8,0c-0.5,0-1.1,0-1.6-0.1
		c-0.3,0-0.4,0.1-0.6,0.3c-1.9,3-3.8,6.1-5.5,9.1c-0.2,0.3-0.1,0.5,0.2,0.6c2.4,1.2,4.9,2.2,7.5,3c0,0.2-0.2,0.3-0.3,0.5
		c-0.5,0.7,0.4,0.5,0.5,0.8c0,0,0,0,0,0c0,0,0,0,0,0c-0.5,0.5-0.7,1-0.5,1.5c0.1,0.1,1.3,0.3,1.5,0.2c0.2-0.1,0.1-0.2,0.1-0.4
		c0-0.7,0-1.5,0-2.2c2,0.4,3.9,0.8,5.9,0.9c2.8,0.2,5.7,0.1,8.4-0.7c2.3-0.7,4-1.9,4-4.6c0-1.5,1.4-2.6,2.9-2.7
		c1.4-0.1,2.8,0.9,3.2,2.3c0.1,0.4,0.1,0.9,0.1,1.4c0.2,2.5,1.2,4.5,3,6.2c3.9,3.5,9.5,3.7,13.9,0.5c0.4,0.2,0.8,0,1.1-0.3
		c0,0.7,0,0.7-0.7,0.7c-0.4,0-0.6,0.1-0.6,0.6c0,0.5,0.3,0.4,0.5,0.4c0.2,0,0.4,0,0.6,0c0.9,0,1.2-0.3,1.2-1.1c0-0.8,0-1.7,0-2.5
		c1-1.6,1.5-3.4,1.5-5.3c0.1-1.6,1.7-2.9,3.3-2.8c1.7,0.2,2.8,1.4,2.9,3.2c0,1,0.4,1.9,1.1,2.6c0.7,0.7,1.5,1.1,2.4,1.4
		c1.8,0.6,3.7,0.8,5.7,0.9c6.4,0.2,12.4-1.5,18.1-4.4c0.4-0.2,0.3-0.4,0.1-0.7C190.7,309,189,306.2,187.2,303.4z"/>
	<path class="st12" d="M215.4,238c-0.7-1-1.6-1.6-2.8-1.9c-0.1,0-0.3,0-0.3-0.1c-0.1,0-0.3,0-0.4,0c-0.4,0.2-0.8,0.2-1.1,0
		c-0.2,0-0.4,0-0.6,0c0,0.2-0.2,0.1-0.3,0.2c-1.5,0.3-2.9,0.8-4.3,1.5c-4.3,2.1-8.6,4.3-11.6,8.3c-0.1,0.2-0.3,0.2-0.5,0.3
		c-2.5,0.2-4.2,1.6-5.6,3.5c-0.2,0.2-0.4,0.4-0.6,0.6c-0.1,0.1-0.2,0.2-0.3,0.4c-0.4,0.5-0.8,0.8-1.1,1.4c-0.1,0.1-0.2,0.3-0.4,0.4
		c-0.4,0.3-0.7,0.7-1,1.1c-0.1,0.2-0.1,0.4-0.3,0.4c-0.7,0.5-1.2,1.2-1.7,1.9c-0.3,0.2-0.5,0.5-0.7,0.8c-1.5,1.5-2.3,3.3-2.2,5.5
		c0,0.3,0,0.5-0.2,0.7c-0.6,0.7-1.2,1.4-1.8,2c-1.1,1.1-1.8,2.4-2.2,3.9c-1.2,4.7-2.2,9.4-3.1,14.2c-0.1,0.5-0.3,0.7-0.8,0.7
		c-6.8,0-13.6,0-20.5,0c-0.2,0.7,0,1.4-0.1,2c0,0.1,0.1,0.3-0.1,0.3c-0.5,0.1-1.4-0.1-1.5-0.3c-0.2-0.5,0-1,0.6-1.5
		c-1-0.6-2-0.5-3.1-0.5c-10.8,0-21.7,0-32.5,0c-0.3,0-0.6,0-0.9,0c0,0,0,0,0,0c-0.2,0.6,0,1.2-0.1,1.9c0,0.1,0.1,0.3-0.1,0.4
		c-0.1,0.1-1.5-0.1-1.5-0.2c-0.3-0.4-0.1-1.1,0.5-1.5c0.2-0.2,0.7-0.2,0.3-0.7c-0.1,0-0.1,0-0.2,0c0,0.2-0.1,0.4-0.4,0.4
		c-0.3,0-0.4-0.1-0.3-0.4c-0.8-0.1-1.6,0-2.4,0.2c-7.1,1.5-10,9.9-5.3,15.4c0.3,0.3,0.2,0.5,0,0.8c-1.1,1.7-2.1,3.4-3.2,5.1
		c-3.9,6.6-7.4,13.3-10.4,20.4c-0.2,0.6-0.4,1.2-0.3,1.8c0.2,1.5,1.3,2.5,2.8,2.7c1.4,0.2,2.7-0.6,3.3-2c1.4-3.3,2.9-6.5,4.5-9.7
		c0.2-0.4,0.3-0.5,0.7-0.3c0.4,0.2,0.8,0.4,1.2,0.6c7.2,3.4,14.8,5.2,22.8,4.3c2.9-0.3,5.7-1,8.2-2.7c0.3-0.2,0.4,0,0.5,0.2
		c0.5,0.8,1,1.5,1.7,2.1c4.5,4.6,10,6.1,16.3,4.8c3.6-0.8,6.7-2.7,9-5.6c-0.1-0.3,0.1-0.3,0.3-0.4c0.2-0.3,0.4-0.5,0.6-0.8
		c0.2-0.5,0.5-0.4,0.8-0.1c1,0.7,2.1,1.2,3.3,1.6c4.1,1.3,8.4,1.5,12.7,1.1c5.6-0.5,10.8-2.3,15.8-4.8c0.8-0.4,0.8-0.4,1.2,0.4
		c2.9,5.7,5.4,11.6,7.5,17.6c3,8.3,3.2,16.7,0.2,25c-2.9,7.7-7.7,14.1-13.9,19.5c-0.4,0.4-0.8,0.8-1.1,1.3c0.1,0.5,0,1,0,1.5
		c0,0.2-0.1,0.3-0.3,0.2c-0.4-0.2-0.8,0.1-1.2,0c-0.9,1.2-1.8,2.4-2.6,3.6c0.1,0.4,0,0.7-0.5,0.6c-1,1.4-2.1,2.8-3.1,4.2
		c-0.2,0.3-0.5,0.5-0.9,0.5c-21.2,0-42.4,0-63.5,0c-0.4,0-0.7-0.1-0.9-0.5c-2.4-3.2-4.8-6.4-7.1-9.7c-0.6-0.8-1.3-1.6-2.1-2.3
		c-1.5-1.2-2.8-2.5-4.1-4l0,0c-0.1-0.1-0.2-0.2-0.2-0.3c-0.1-0.1-0.3-0.2-0.4-0.3c-2.8-3.2-5.1-6.7-7-10.4c-0.1-0.3-0.2-0.5-0.4-0.8
		c-1.8-3.9-3-8-3.4-12.3c-0.4-4.2,0.1-8.4,1.2-12.5c0.2-0.9,0.2-1.8-0.4-2.6c-0.1,0-0.2,0.1-0.3,0c-0.1-0.1,0-0.2,0-0.3
		c-0.3-0.4-0.6-0.6-1-0.8c-1.9-0.9-3.9,0.1-4.4,2.1c-0.6,2.3-1,4.5-1.3,6.9c0,0.3,0.1,0.7-0.2,1c0,0.4,0,0.8,0,1.3
		c0.2,0.3,0.2,0.5,0,0.8c0,1.1,0,2.3,0,3.4c0.1,0.1,0.2,0.2,0,0.3c0,0.3,0,0.5,0,0.8c0,0,0.1,0.1,0.1,0.2c0.1,3.2,0.8,6.2,1.7,9.3
		c1.7,5.4,4.4,10.3,7.7,14.8c1.7,2.3,3.7,4.5,5.7,6.5c0,0,0.1,0.1,0.1,0.1c0,0,0-0.1,0-0.1c0.2,0,0.3,0.1,0.4,0.4
		c0,0-0.1,0.1-0.1,0.1c0,0,0,0,0,0c0.1,0.2,0.3,0.3,0.5,0.4c1,0.8,2,1.6,2.8,2.6c2.6,3.6,5.2,7.1,7.8,10.6c0.1,0.1,0.2,0.3,0.3,0.4
		h0.6c0.1-0.1,0.1-0.1,0.2,0h18.1h1.6h36h1.6h15.3c2.4-3.1,4.7-6.3,7-9.5c0.7-0.9,1.3-2,2.2-2.8c0.9-0.8,1.8-1.6,2.7-2.5
		c0.9-0.9,1.8-1.9,2.7-2.9c0-0.1,0.1-0.1,0.1-0.2c-0.1,0-0.1,0-0.2,0c0.2-0.4,0.5-0.7,0.9-1c0,0.1,0,0.1,0,0.2c0,0,0.1-0.1,0.1-0.1
		c1-1.3,2-2.6,3-3.9c2.6-3.7,4.7-7.7,6.2-12c1.9-5.5,2.6-11.1,2.2-17c-0.3-3.3-0.9-6.5-1.9-9.7c-1.3-4.1-2.8-8-4.5-11.9
		c-1.9-4.4-4-8.7-6.3-12.9c-2.1-3.8-4.3-7.5-6.6-11.2c-0.5-0.8-0.5-0.8,0.1-1.7c1.4-2.1,1.9-4.5,1.5-7c-0.5-2.9-2.1-5.1-4.6-6.7
		c-0.3-0.2-0.4-0.4-0.3-0.8c0.6-2.8,1.3-5.5,1.9-8.3c0.2-1,0.9-1.4,1.8-1.5c0.3,0,0.6-0.1,0.9-0.1c2-0.4,3.3-1.6,4.6-3.1
		c2-2.5,4.2-4.9,6.3-7.3c1.5-1.7,2.4-3.6,2.2-5.9c0-0.4,0.1-0.8,0.4-1.1c2.2-2.4,4.2-4.9,5.8-7.7c1.2-2,2.3-4.1,2.6-6.4
		c0-1.1,0-2.2,0-3.3C215.8,238.9,215.7,238.4,215.4,238z M178.8,283.2c0.9-4.3,1.8-8.5,2.8-12.8c0.2-1,1.1-1.5,1.6-2.3
		c0.1-0.2,0.3,0,0.4,0.1c1,0.8,1.9,1.7,2.9,2.5c0.1,0.1,0.2,0.2,0.1,0.3c-1.3,1.2-1.4,3-1.8,4.6c-0.6,2.4-1.1,4.9-1.7,7.4
		c-0.1,0.4-0.3,0.6-0.7,0.5c-0.5,0-1,0-1.6,0c0,0,0,0,0,0c-0.6,0-1.1,0-1.7,0C178.8,283.6,178.7,283.5,178.8,283.2z M110.9,289.9
		c0.3,0,0.5,0,0.8,0c12.2,0,24.3,0,36.5,0c12.2,0,24.3,0,36.5,0c1.7,0,2.8,0.8,3.3,2.2c0.7,2-0.7,4.1-2.9,4.2c-0.2,0-0.3,0-0.5,0
		c-24.3,0-48.6,0-72.9,0c-1.8,0-3-0.8-3.5-2.2C107.6,292.1,108.8,290.2,110.9,289.9z M187,284c0-0.7,0.2-1,0.8-1
		c0.6,0,0.9,0.3,0.9,0.9c0,0.6,0,1.2,0,1.8c0,0.1,0,0.2-0.1,0.3c-0.4,0.1-1.4-0.1-1.5-0.3c-0.2-0.5,0-1,0.6-1.5l0,0
		C187.4,284,187.1,284.2,187,284z M169.1,300c-0.1-0.1-0.2,0-0.3,0.1c-0.1,0.3-0.4,0.2-0.6,0.2c-0.2-0.1-0.1-0.4,0-0.6
		c0.2-0.4,0.5-0.4,0.9-0.4c0.4,0,0.7,0.2,0.7,0.6c0,0.4,0,0.8,0,1.2c0,0,0,0,0,0c0,0.2,0,0.4,0,0.6c0,0.5,0.1,0.9-0.6,0.6
		c0,0-0.1,0-0.2,0c-0.3,0.2-0.7,0.2-0.8-0.2c-0.2-0.4-0.1-0.9,0.2-1.2c0.2-0.2,0.4-0.3,0.6-0.4C169.2,300.2,169.3,300.1,169.1,300z
		 M131.5,301.6c-0.1,0.1-0.2,0-0.2-0.1c-0.1-0.3,0.1-0.4,0.3-0.6C131.6,301.2,131.7,301.5,131.5,301.6z M192.4,311.9
		c0.2,0.3,0.3,0.5-0.1,0.7c-5.7,2.9-11.7,4.6-18.1,4.4c-1.9-0.1-3.8-0.2-5.7-0.9c-0.9-0.3-1.7-0.7-2.4-1.4c-0.7-0.7-1.1-1.6-1.1-2.6
		c-0.1-1.8-1.2-3-2.9-3.2c-1.6-0.2-3.3,1.1-3.3,2.8c-0.1,1.9-0.5,3.7-1.5,5.3c0,0.8,0,1.7,0,2.5c0,0.9-0.3,1.1-1.2,1.1
		c-0.2,0-0.4,0-0.6,0c-0.3,0-0.5,0.1-0.5-0.4c0-0.5,0.2-0.5,0.6-0.6c0.7,0,0.7,0,0.7-0.7c-0.3,0.3-0.7,0.5-1.1,0.3
		c-4.4,3.2-10,3-13.9-0.5c-1.8-1.6-2.9-3.7-3-6.2c0-0.5,0-0.9-0.1-1.4c-0.4-1.4-1.8-2.4-3.2-2.3c-1.5,0.1-2.9,1.2-2.9,2.7
		c-0.1,2.7-1.7,4-4,4.6c-2.8,0.8-5.6,0.8-8.4,0.7c-2-0.1-4-0.5-5.9-0.9c0,0.7,0,1.5,0,2.2c0,0.1,0.1,0.3-0.1,0.4
		c-0.2,0.1-1.4-0.1-1.5-0.2c-0.3-0.4-0.1-1,0.5-1.5c0,0,0,0,0,0c0,0,0,0,0,0c-0.2-0.3-1-0.1-0.5-0.8c0.1-0.2,0.3-0.3,0.3-0.5
		c-2.6-0.8-5.1-1.8-7.5-3c-0.3-0.2-0.4-0.3-0.2-0.6c1.8-3.1,3.6-6.2,5.5-9.1c0.1-0.2,0.3-0.3,0.6-0.3c0.5,0.1,1.1,0.1,1.6,0.1
		c24.3,0,48.5,0,72.8,0c0.2,0,0.4,0,0.6,0c0.9-0.3,1.3,0.1,1.8,0.9C189,306.2,190.7,309,192.4,311.9z M199.5,260.2
		c-1.9,2.2-3.7,4.4-5.6,6.5c-0.3,0.3-0.5,0.6-0.8,0.9c-0.2,0.3-0.5,0.3-0.7,0c-2.1-1.8-4.1-3.7-6.2-5.5c-0.4-0.4-0.2-0.7,0.1-1
		c1.6-1.9,3.3-3.8,4.9-5.7c0.4-0.4,0.7-0.8,1-1.2c0.2-0.4,0.5-0.8,0.9-1.1l0,0c0-1,0-2,0-3c0-0.5,0.2-0.5,0.6-0.5
		c0.4,0,0.5,0.2,0.5,0.5c0,0.8,0,1.5,0,2.3c1.8,1.6,3.7,3.3,5.5,4.9c0,0,0,0,0.1,0C201.2,258.7,201.3,258.2,199.5,260.2z
		 M209.2,243.2c0,0.1-0.1,0.2-0.2,0.4c-1.4,3-3.2,5.8-5.6,8.2c-0.2,0.2-0.3,0.2-0.5,0c-1-0.9-2-1.8-2.9-2.6c-0.3-0.2-0.2-0.4,0-0.6
		c0.5-0.6,1.2-1.1,1.8-1.5c2.2-1.5,4.4-2.8,6.8-3.9C209.1,242.9,209.2,243,209.2,243.2z"/>
	<path class="st25" d="M111.9,397.7C111.9,397.7,111.9,397.7,111.9,397.7C112,397.7,111.9,397.7,111.9,397.7c0.1,0,0.2-0.1,0.3-0.2
		h-0.6C111.7,397.6,111.8,397.7,111.9,397.7z"/>
	<g>
		<circle class="st3" cx="181.8" cy="375.1" r="2.8"/>
	</g>
	<g>
		<circle class="st7" cx="188.3" cy="363.6" r="4.4"/>
	</g>
	<g>
		<circle class="st7" cx="185.7" cy="336.9" r="3.1"/>
	</g>
	<g>
		<circle class="st7" cx="185.6" cy="351.5" r="1.1"/>
	</g>
</g>
<g>
	<g>
		<rect x="37.6" y="398" class="st26" width="551.6" height="39.3"/>
	</g>
	<g>
		<path class="st3" d="M589.1,439.4H37.6c-1.2,0-2.1-0.9-2.1-2.1V398c0-1.2,0.9-2.1,2.1-2.1h9.2c1.2,0,2.1,0.9,2.1,2.1
			s-0.9,2.1-2.1,2.1h-7.1v35.1H587v-35.1H65.5c-1.2,0-2.1-0.9-2.1-2.1s0.9-2.1,2.1-2.1h523.6c1.2,0,2.1,0.9,2.1,2.1v39.3
			C591.2,438.4,590.3,439.4,589.1,439.4z"/>
	</g>
	<g>
		<circle class="st3" cx="55.7" cy="398.1" r="2.8"/>
	</g>
	<g>
		<rect x="2.6" y="398" class="st26" width="563.2" height="39.3"/>
	</g>
	<g>
		<rect x="2.6" y="398" class="st27" width="563.2" height="9.4"/>
	</g>
	<g>
		<rect x="2.6" y="427.5" class="st28" width="563.2" height="9.4"/>
	</g>
	<g>
		<path class="st3" d="M77,409.4H33.7c-0.7,0-1.3-0.6-1.3-1.3s0.6-1.3,1.3-1.3H77c0.7,0,1.3,0.6,1.3,1.3S77.7,409.4,77,409.4z"/>
	</g>
	<g>
		<path class="st29" d="M565.1,423.8c-54.1-0.7-96.4-4.1-133.7-7c-35.8-2.8-69.7-5.5-108.3-5.5c-43,0-76.8,2.9-112.6,6.1
			c-20.6,1.8-41.9,3.6-66.2,5.1c-47.2,1.7-94.8-1.1-141.4-8.4l0.4-2.7c46.5,7.3,93.8,10.1,140.9,8.4c24.3-1.4,45.5-3.3,66.1-5.1
			c35.9-3.1,69.8-6.1,112.9-6.1c38.7,0,72.6,2.7,108.6,5.5c37.3,3,79.5,6.3,133.5,7L565.1,423.8z"/>
	</g>
	<g>
		<path class="st29" d="M321.8,426.7c-29-0.3-58.3-2.7-86.9-6.8c-76.8-9.1-154.5-8.2-231.1,2.7l-0.4-2.7
			c76.8-10.9,154.8-11.8,231.8-2.7c28.6,4.2,57.7,6.5,86.6,6.8c38.4,0,72.1-2.7,107.7-5.5c37.5-3,79.9-6.4,134.3-7l0,2.8
			c-54.3,0.7-96.7,4-134.1,7C394,424,360.3,426.7,321.8,426.7z"/>
	</g>
	<g>
		<path class="st3" d="M565.7,439.4H2.6c-1.2,0-2.1-0.9-2.1-2.1V398c0-1.2,0.9-2.1,2.1-2.1h9.2c1.2,0,2.1,0.9,2.1,2.1
			s-0.9,2.1-2.1,2.1H4.7v35.1h558.9v-35.1H30.6c-1.2,0-2.1-0.9-2.1-2.1s0.9-2.1,2.1-2.1h535.2c1.2,0,2.1,0.9,2.1,2.1v39.3
			C567.8,438.4,566.9,439.4,565.7,439.4z"/>
	</g>
	<g>
		<circle class="st3" cx="86.2" cy="408.1" r="2.8"/>
	</g>
	<g>
		<circle class="st3" cx="20.8" cy="398.1" r="2.8"/>
	</g>
</g>
</svg>
